<?xml version="1.0" encoding="UTF-8" standalone="no"?><svg xmlns="http://www.w3.org/2000/svg" xmlns:xlink="http://www.w3.org/1999/xlink" contentScriptType="application/ecmascript" contentStyleType="text/css" height="660px" preserveAspectRatio="none" style="width:2457px;height:660px;" version="1.1" viewBox="0 0 2457 660" width="2457px" zoomAndPan="magnify"><defs><filter height="300%" id="f1spubp2ivj2zh" width="300%" x="-1" y="-1"><feGaussianBlur result="blurOut" stdDeviation="2.0"/><feColorMatrix in="blurOut" result="blurOut2" type="matrix" values="0 0 0 0 0 0 0 0 0 0 0 0 0 0 0 0 0 0 .4 0"/><feOffset dx="4.0" dy="4.0" in="blurOut2" result="blurOut3"/><feBlend in="SourceGraphic" in2="blurOut3" mode="normal"/></filter></defs><g><!--cluster github.com\\filecoin_project\\go_filecoin\\actor--><polygon fill="#FFFFFF" filter="url(#f1spubp2ivj2zh)" points="14,67.5,350,67.5,357,89.9883,446,89.9883,446,438,14,438,14,67.5" style="stroke: #000000; stroke-width: 1.5;"/><line style="stroke: #000000; stroke-width: 1.5;" x1="14" x2="357" y1="89.9883" y2="89.9883"/><text fill="#000000" font-family="sans-serif" font-size="14" font-weight="bold" lengthAdjust="spacingAndGlyphs" textLength="330" x="18" y="83.0352">github.com\filecoin_project\go_filecoin\actor</text><!--cluster github.com\\filecoin_project\\go_filecoin\\actor\\builtin\\account--><polygon fill="#FFFFFF" filter="url(#f1spubp2ivj2zh)" points="987,93.5,1442,93.5,1449,115.9883,1452,115.9883,1452,176.5,987,176.5,987,93.5" style="stroke: #000000; stroke-width: 1.5;"/><line style="stroke: #000000; stroke-width: 1.5;" x1="987" x2="1449" y1="115.9883" y2="115.9883"/><text fill="#000000" font-family="sans-serif" font-size="14" font-weight="bold" lengthAdjust="spacingAndGlyphs" textLength="449" x="991" y="109.0352">github.com\filecoin_project\go_filecoin\actor\builtin\account</text><!--cluster github.com\\filecoin_project\\go_filecoin\\actor\\builtin\\miner--><polygon fill="#FFFFFF" filter="url(#f1spubp2ivj2zh)" points="1460,16,1902,16,1909,38.4883,1912,38.4883,1912,648,1460,648,1460,16" style="stroke: #000000; stroke-width: 1.5;"/><line style="stroke: #000000; stroke-width: 1.5;" x1="1460" x2="1909" y1="38.4883" y2="38.4883"/><text fill="#000000" font-family="sans-serif" font-size="14" font-weight="bold" lengthAdjust="spacingAndGlyphs" textLength="436" x="1464" y="31.5352">github.com\filecoin_project\go_filecoin\actor\builtin\miner</text><!--cluster github.com\\filecoin_project\\go_filecoin\\actor\\builtin\\paymentbroker--><polygon fill="#FFFFFF" filter="url(#f1spubp2ivj2zh)" points="460,54.5,969,54.5,976,76.9883,979,76.9883,979,431.5,460,431.5,460,54.5" style="stroke: #000000; stroke-width: 1.5;"/><line style="stroke: #000000; stroke-width: 1.5;" x1="460" x2="976" y1="76.9883" y2="76.9883"/><text fill="#000000" font-family="sans-serif" font-size="14" font-weight="bold" lengthAdjust="spacingAndGlyphs" textLength="503" x="464" y="70.0352">github.com\filecoin_project\go_filecoin\actor\builtin\paymentbroker</text><!--cluster github.com\\filecoin_project\\go_filecoin\\actor\\builtin\\storagemarket--><polygon fill="#FFFFFF" filter="url(#f1spubp2ivj2zh)" points="1920,80.5,2425,80.5,2432,102.9883,2435,102.9883,2435,189.5,1920,189.5,1920,80.5" style="stroke: #000000; stroke-width: 1.5;"/><line style="stroke: #000000; stroke-width: 1.5;" x1="1920" x2="2432" y1="102.9883" y2="102.9883"/><text fill="#000000" font-family="sans-serif" font-size="14" font-weight="bold" lengthAdjust="spacingAndGlyphs" textLength="499" x="1924" y="96.0352">github.com\filecoin_project\go_filecoin\actor\builtin\storagemarket</text><!--class github.com\\filecoin_project\\go_filecoin\\actor.Actor--><rect fill="#FEFECE" filter="url(#f1spubp2ivj2zh)" height="99.8203" id="github.com\\filecoin_project\\go_filecoin\\actor.Actor" style="stroke: #A80036; stroke-width: 1.5;" width="130" x="22" y="94.5"/><ellipse cx="67.75" cy="110.5" fill="#ADD1B2" rx="11" ry="11" style="stroke: #A80036; stroke-width: 1.0;"/><path d="M70.2231,116.6431 Q69.6421,116.9419 69.0029,117.0913 Q68.3638,117.2407 67.6582,117.2407 Q65.1514,117.2407 63.8315,115.5889 Q62.5117,113.937 62.5117,110.8159 Q62.5117,107.6865 63.8315,106.0347 Q65.1514,104.3828 67.6582,104.3828 Q68.3638,104.3828 69.0112,104.5322 Q69.6587,104.6816 70.2231,104.9805 L70.2231,107.7031 Q69.5923,107.1221 68.9988,106.8523 Q68.4053,106.5825 67.7744,106.5825 Q66.4297,106.5825 65.7449,107.6492 Q65.0601,108.7158 65.0601,110.8159 Q65.0601,112.9077 65.7449,113.9744 Q66.4297,115.041 67.7744,115.041 Q68.4053,115.041 68.9988,114.7712 Q69.5923,114.5015 70.2231,113.9204 Z "/><text fill="#000000" font-family="sans-serif" font-size="12" lengthAdjust="spacingAndGlyphs" textLength="30" x="88.25" y="115.0352">Actor</text><line style="stroke: #A80036; stroke-width: 1.5;" x1="23" x2="151" y1="126.5" y2="126.5"/><text fill="#000000" font-family="sans-serif" font-size="11" lengthAdjust="spacingAndGlyphs" textLength="68" x="28" y="141.1348">Code cid.Cid</text><text fill="#000000" font-family="sans-serif" font-size="11" lengthAdjust="spacingAndGlyphs" textLength="67" x="28" y="154.0898">Head cid.Cid</text><text fill="#000000" font-family="sans-serif" font-size="11" lengthAdjust="spacingAndGlyphs" textLength="105" x="28" y="167.0449">Nonce types.Uint64</text><text fill="#000000" font-family="sans-serif" font-size="11" lengthAdjust="spacingAndGlyphs" textLength="118" x="28" y="180">Balance *types.AttoFIL</text><line style="stroke: #A80036; stroke-width: 1.5;" x1="23" x2="151" y1="186.3203" y2="186.3203"/><!--class github.com\\filecoin_project\\go_filecoin\\actor.storageAsBlocks--><rect fill="#FEFECE" filter="url(#f1spubp2ivj2zh)" height="60.9551" id="github.com\\filecoin_project\\go_filecoin\\actor.storageAsBlocks" style="stroke: #A80036; stroke-width: 1.5;" width="125" x="187.5" y="114"/><ellipse cx="202.5" cy="130" fill="#ADD1B2" rx="11" ry="11" style="stroke: #A80036; stroke-width: 1.0;"/><path d="M204.9731,136.1431 Q204.3921,136.4419 203.7529,136.5913 Q203.1138,136.7407 202.4082,136.7407 Q199.9014,136.7407 198.5815,135.0889 Q197.2617,133.437 197.2617,130.3159 Q197.2617,127.1865 198.5815,125.5347 Q199.9014,123.8828 202.4082,123.8828 Q203.1138,123.8828 203.7612,124.0322 Q204.4087,124.1816 204.9731,124.4805 L204.9731,127.2031 Q204.3423,126.6221 203.7488,126.3523 Q203.1553,126.0825 202.5244,126.0825 Q201.1797,126.0825 200.4949,127.1492 Q199.8101,128.2158 199.8101,130.3159 Q199.8101,132.4077 200.4949,133.4744 Q201.1797,134.541 202.5244,134.541 Q203.1553,134.541 203.7488,134.2712 Q204.3423,134.0015 204.9731,133.4204 Z "/><text fill="#000000" font-family="sans-serif" font-size="12" lengthAdjust="spacingAndGlyphs" textLength="93" x="216.5" y="134.5352">storageAsBlocks</text><line style="stroke: #A80036; stroke-width: 1.5;" x1="188.5" x2="311.5" y1="146" y2="146"/><text fill="#000000" font-family="sans-serif" font-size="11" lengthAdjust="spacingAndGlyphs" textLength="78" x="193.5" y="160.6348">s exec.Storage</text><line style="stroke: #A80036; stroke-width: 1.5;" x1="188.5" x2="311.5" y1="166.9551" y2="166.9551"/><!--class github.com\\filecoin_project\\go_filecoin\\actor.lookup--><rect fill="#FEFECE" filter="url(#f1spubp2ivj2zh)" height="86.8652" id="github.com\\filecoin_project\\go_filecoin\\actor.lookup" style="stroke: #A80036; stroke-width: 1.5;" width="90" x="348" y="101"/><ellipse cx="371.55" cy="117" fill="#ADD1B2" rx="11" ry="11" style="stroke: #A80036; stroke-width: 1.0;"/><path d="M374.0231,123.1431 Q373.4421,123.4419 372.8029,123.5913 Q372.1638,123.7407 371.4582,123.7407 Q368.9514,123.7407 367.6315,122.0889 Q366.3117,120.437 366.3117,117.3159 Q366.3117,114.1865 367.6315,112.5347 Q368.9514,110.8828 371.4582,110.8828 Q372.1638,110.8828 372.8112,111.0322 Q373.4587,111.1816 374.0231,111.4805 L374.0231,114.2031 Q373.3923,113.6221 372.7988,113.3523 Q372.2053,113.0825 371.5744,113.0825 Q370.2297,113.0825 369.5449,114.1492 Q368.8601,115.2158 368.8601,117.3159 Q368.8601,119.4077 369.5449,120.4744 Q370.2297,121.541 371.5744,121.541 Q372.2053,121.541 372.7988,121.2712 Q373.3923,121.0015 374.0231,120.4204 Z "/><text fill="#000000" font-family="sans-serif" font-size="12" lengthAdjust="spacingAndGlyphs" textLength="39" x="387.45" y="121.5352">lookup</text><line style="stroke: #A80036; stroke-width: 1.5;" x1="349" x2="437" y1="133" y2="133"/><text fill="#000000" font-family="sans-serif" font-size="11" lengthAdjust="spacingAndGlyphs" textLength="73" x="354" y="147.6348">n *hamt.Node</text><text fill="#000000" font-family="sans-serif" font-size="11" lengthAdjust="spacingAndGlyphs" textLength="78" x="354" y="160.5898">s exec.Storage</text><text fill="#000000" font-family="sans-serif" font-size="11" lengthAdjust="spacingAndGlyphs" textLength="70" x="354" y="173.5449">t reflect.Type</text><line style="stroke: #A80036; stroke-width: 1.5;" x1="349" x2="437" y1="179.8652" y2="179.8652"/><!--class github.com\\filecoin_project\\go_filecoin\\actor.FakeActorStorage--><rect fill="#FEFECE" filter="url(#f1spubp2ivj2zh)" height="60.9551" id="github.com\\filecoin_project\\go_filecoin\\actor.FakeActorStorage" style="stroke: #A80036; stroke-width: 1.5;" width="132" x="22" y="369"/><ellipse cx="37" cy="385" fill="#ADD1B2" rx="11" ry="11" style="stroke: #A80036; stroke-width: 1.0;"/><path d="M39.4731,391.1431 Q38.8921,391.4419 38.2529,391.5913 Q37.6138,391.7407 36.9082,391.7407 Q34.4014,391.7407 33.0815,390.0889 Q31.7617,388.437 31.7617,385.3159 Q31.7617,382.1865 33.0815,380.5347 Q34.4014,378.8828 36.9082,378.8828 Q37.6138,378.8828 38.2612,379.0322 Q38.9087,379.1816 39.4731,379.4805 L39.4731,382.2031 Q38.8423,381.6221 38.2488,381.3523 Q37.6553,381.0825 37.0244,381.0825 Q35.6797,381.0825 34.9949,382.1492 Q34.3101,383.2158 34.3101,385.3159 Q34.3101,387.4077 34.9949,388.4744 Q35.6797,389.541 37.0244,389.541 Q37.6553,389.541 38.2488,389.2712 Q38.8423,389.0015 39.4731,388.4204 Z "/><text fill="#000000" font-family="sans-serif" font-size="12" lengthAdjust="spacingAndGlyphs" textLength="100" x="51" y="389.5352">FakeActorStorage</text><line style="stroke: #A80036; stroke-width: 1.5;" x1="23" x2="153" y1="401" y2="401"/><text fill="#000000" font-family="sans-serif" font-size="11" lengthAdjust="spacingAndGlyphs" textLength="75" x="28" y="415.6348">Changed bool</text><line style="stroke: #A80036; stroke-width: 1.5;" x1="23" x2="153" y1="421.9551" y2="421.9551"/><!--class github.com\\filecoin_project\\go_filecoin\\actor.FakeActor--><rect fill="#FEFECE" filter="url(#f1spubp2ivj2zh)" height="48" id="github.com\\filecoin_project\\go_filecoin\\actor.FakeActor" style="stroke: #A80036; stroke-width: 1.5;" width="89" x="189.5" y="375.5"/><ellipse cx="204.5" cy="391.5" fill="#ADD1B2" rx="11" ry="11" style="stroke: #A80036; stroke-width: 1.0;"/><path d="M206.9731,397.6431 Q206.3921,397.9419 205.7529,398.0913 Q205.1138,398.2407 204.4082,398.2407 Q201.9014,398.2407 200.5815,396.5889 Q199.2617,394.937 199.2617,391.8159 Q199.2617,388.6865 200.5815,387.0347 Q201.9014,385.3828 204.4082,385.3828 Q205.1138,385.3828 205.7612,385.5322 Q206.4087,385.6816 206.9731,385.9805 L206.9731,388.7031 Q206.3423,388.1221 205.7488,387.8523 Q205.1553,387.5825 204.5244,387.5825 Q203.1797,387.5825 202.4949,388.6492 Q201.8101,389.7158 201.8101,391.8159 Q201.8101,393.9077 202.4949,394.9744 Q203.1797,396.041 204.5244,396.041 Q205.1553,396.041 205.7488,395.7712 Q206.3423,395.5015 206.9731,394.9204 Z "/><text fill="#000000" font-family="sans-serif" font-size="12" lengthAdjust="spacingAndGlyphs" textLength="57" x="218.5" y="396.0352">FakeActor</text><line style="stroke: #A80036; stroke-width: 1.5;" x1="190.5" x2="277.5" y1="407.5" y2="407.5"/><line style="stroke: #A80036; stroke-width: 1.5;" x1="190.5" x2="277.5" y1="415.5" y2="415.5"/><!--class github.com\\filecoin_project\\go_filecoin\\actor\\builtin\\account.Actor--><rect fill="#FEFECE" filter="url(#f1spubp2ivj2zh)" height="48" id="github.com\\filecoin_project\\go_filecoin\\actor\\builtin\\account.Actor" style="stroke: #A80036; stroke-width: 1.5;" width="62" x="1183" y="120.5"/><ellipse cx="1198" cy="136.5" fill="#ADD1B2" rx="11" ry="11" style="stroke: #A80036; stroke-width: 1.0;"/><path d="M1200.4731,142.6431 Q1199.8921,142.9419 1199.2529,143.0913 Q1198.6138,143.2407 1197.9082,143.2407 Q1195.4014,143.2407 1194.0815,141.5889 Q1192.7617,139.937 1192.7617,136.8159 Q1192.7617,133.6865 1194.0815,132.0347 Q1195.4014,130.3828 1197.9082,130.3828 Q1198.6138,130.3828 1199.2612,130.5322 Q1199.9087,130.6816 1200.4731,130.9805 L1200.4731,133.7031 Q1199.8423,133.1221 1199.2488,132.8523 Q1198.6553,132.5825 1198.0244,132.5825 Q1196.6797,132.5825 1195.9949,133.6492 Q1195.3101,134.7158 1195.3101,136.8159 Q1195.3101,138.9077 1195.9949,139.9744 Q1196.6797,141.041 1198.0244,141.041 Q1198.6553,141.041 1199.2488,140.7712 Q1199.8423,140.5015 1200.4731,139.9204 Z "/><text fill="#000000" font-family="sans-serif" font-size="12" lengthAdjust="spacingAndGlyphs" textLength="30" x="1212" y="141.0352">Actor</text><line style="stroke: #A80036; stroke-width: 1.5;" x1="1184" x2="1244" y1="152.5" y2="152.5"/><line style="stroke: #A80036; stroke-width: 1.5;" x1="1184" x2="1244" y1="160.5" y2="160.5"/><!--class github.com\\filecoin_project\\go_filecoin\\actor\\builtin\\miner.Actor--><rect fill="#FEFECE" filter="url(#f1spubp2ivj2zh)" height="60.9551" id="github.com\\filecoin_project\\go_filecoin\\actor\\builtin\\miner.Actor" style="stroke: #A80036; stroke-width: 1.5;" width="91" x="1800.5" y="114"/><ellipse cx="1828.55" cy="130" fill="#ADD1B2" rx="11" ry="11" style="stroke: #A80036; stroke-width: 1.0;"/><path d="M1831.0231,136.1431 Q1830.4421,136.4419 1829.8029,136.5913 Q1829.1638,136.7407 1828.4582,136.7407 Q1825.9514,136.7407 1824.6315,135.0889 Q1823.3117,133.437 1823.3117,130.3159 Q1823.3117,127.1865 1824.6315,125.5347 Q1825.9514,123.8828 1828.4582,123.8828 Q1829.1638,123.8828 1829.8112,124.0322 Q1830.4587,124.1816 1831.0231,124.4805 L1831.0231,127.2031 Q1830.3923,126.6221 1829.7988,126.3523 Q1829.2053,126.0825 1828.5744,126.0825 Q1827.2297,126.0825 1826.5449,127.1492 Q1825.8601,128.2158 1825.8601,130.3159 Q1825.8601,132.4077 1826.5449,133.4744 Q1827.2297,134.541 1828.5744,134.541 Q1829.2053,134.541 1829.7988,134.2712 Q1830.3923,134.0015 1831.0231,133.4204 Z "/><text fill="#000000" font-family="sans-serif" font-size="12" lengthAdjust="spacingAndGlyphs" textLength="30" x="1845.45" y="134.5352">Actor</text><line style="stroke: #A80036; stroke-width: 1.5;" x1="1801.5" x2="1890.5" y1="146" y2="146"/><text fill="#000000" font-family="sans-serif" font-size="11" lengthAdjust="spacingAndGlyphs" textLength="79" x="1806.5" y="160.6348">Bootstrap bool</text><line style="stroke: #A80036; stroke-width: 1.5;" x1="1801.5" x2="1890.5" y1="166.9551" y2="166.9551"/><!--class github.com\\filecoin_project\\go_filecoin\\actor\\builtin\\miner.Ask--><rect fill="#FEFECE" filter="url(#f1spubp2ivj2zh)" height="86.8652" id="github.com\\filecoin_project\\go_filecoin\\actor\\builtin\\miner.Ask" style="stroke: #A80036; stroke-width: 1.5;" width="149" x="1542.5" y="553"/><ellipse cx="1602.25" cy="569" fill="#ADD1B2" rx="11" ry="11" style="stroke: #A80036; stroke-width: 1.0;"/><path d="M1604.7231,575.1431 Q1604.1421,575.4419 1603.5029,575.5913 Q1602.8638,575.7407 1602.1582,575.7407 Q1599.6514,575.7407 1598.3315,574.0889 Q1597.0117,572.437 1597.0117,569.3159 Q1597.0117,566.1865 1598.3315,564.5347 Q1599.6514,562.8828 1602.1582,562.8828 Q1602.8638,562.8828 1603.5112,563.0322 Q1604.1587,563.1816 1604.7231,563.4805 L1604.7231,566.2031 Q1604.0923,565.6221 1603.4988,565.3523 Q1602.9053,565.0825 1602.2744,565.0825 Q1600.9297,565.0825 1600.2449,566.1492 Q1599.5601,567.2158 1599.5601,569.3159 Q1599.5601,571.4077 1600.2449,572.4744 Q1600.9297,573.541 1602.2744,573.541 Q1602.9053,573.541 1603.4988,573.2712 Q1604.0923,573.0015 1604.7231,572.4204 Z "/><text fill="#000000" font-family="sans-serif" font-size="12" lengthAdjust="spacingAndGlyphs" textLength="21" x="1622.75" y="573.5352">Ask</text><line style="stroke: #A80036; stroke-width: 1.5;" x1="1543.5" x2="1690.5" y1="585" y2="585"/><text fill="#000000" font-family="sans-serif" font-size="11" lengthAdjust="spacingAndGlyphs" textLength="104" x="1548.5" y="599.6348">Price *types.AttoFIL</text><text fill="#000000" font-family="sans-serif" font-size="11" lengthAdjust="spacingAndGlyphs" textLength="137" x="1548.5" y="612.5898">Expiry *types.BlockHeight</text><text fill="#000000" font-family="sans-serif" font-size="11" lengthAdjust="spacingAndGlyphs" textLength="53" x="1548.5" y="625.5449">ID *big.Int</text><line style="stroke: #A80036; stroke-width: 1.5;" x1="1543.5" x2="1690.5" y1="631.8652" y2="631.8652"/><!--class github.com\\filecoin_project\\go_filecoin\\actor\\builtin\\miner.State--><rect fill="#FEFECE" filter="url(#f1spubp2ivj2zh)" height="203.4609" id="github.com\\filecoin_project\\go_filecoin\\actor\\builtin\\miner.State" style="stroke: #A80036; stroke-width: 1.5;" width="294" x="1470" y="43"/><ellipse cx="1598.75" cy="59" fill="#ADD1B2" rx="11" ry="11" style="stroke: #A80036; stroke-width: 1.0;"/><path d="M1601.2231,65.1431 Q1600.6421,65.4419 1600.0029,65.5913 Q1599.3638,65.7407 1598.6582,65.7407 Q1596.1514,65.7407 1594.8315,64.0889 Q1593.5117,62.437 1593.5117,59.3159 Q1593.5117,56.1865 1594.8315,54.5347 Q1596.1514,52.8828 1598.6582,52.8828 Q1599.3638,52.8828 1600.0112,53.0322 Q1600.6587,53.1816 1601.2231,53.4805 L1601.2231,56.2031 Q1600.5923,55.6221 1599.9988,55.3523 Q1599.4053,55.0825 1598.7744,55.0825 Q1597.4297,55.0825 1596.7449,56.1492 Q1596.0601,57.2158 1596.0601,59.3159 Q1596.0601,61.4077 1596.7449,62.4744 Q1597.4297,63.541 1598.7744,63.541 Q1599.4053,63.541 1599.9988,63.2712 Q1600.5923,63.0015 1601.2231,62.4204 Z "/><text fill="#000000" font-family="sans-serif" font-size="12" lengthAdjust="spacingAndGlyphs" textLength="28" x="1619.25" y="63.5352">State</text><line style="stroke: #A80036; stroke-width: 1.5;" x1="1471" x2="1763" y1="75" y2="75"/><text fill="#000000" font-family="sans-serif" font-size="11" lengthAdjust="spacingAndGlyphs" textLength="129" x="1476" y="89.6348">Owner address.Address</text><text fill="#000000" font-family="sans-serif" font-size="11" lengthAdjust="spacingAndGlyphs" textLength="75" x="1476" y="102.5898">PeerID peer.ID</text><text fill="#000000" font-family="sans-serif" font-size="11" lengthAdjust="spacingAndGlyphs" textLength="85" x="1476" y="115.5449">PublicKey []byte</text><text fill="#000000" font-family="sans-serif" font-size="11" lengthAdjust="spacingAndGlyphs" textLength="117" x="1476" y="128.5">PledgeSectors *big.Int</text><text fill="#000000" font-family="sans-serif" font-size="11" lengthAdjust="spacingAndGlyphs" textLength="129" x="1476" y="141.4551">Collateral *types.AttoFIL</text><text fill="#000000" font-family="sans-serif" font-size="11" lengthAdjust="spacingAndGlyphs" textLength="62" x="1476" y="154.4102">Asks []*Ask</text><text fill="#000000" font-family="sans-serif" font-size="11" lengthAdjust="spacingAndGlyphs" textLength="98" x="1476" y="167.3652">NextAskID *big.Int</text><text fill="#000000" font-family="sans-serif" font-size="11" lengthAdjust="spacingAndGlyphs" textLength="282" x="1476" y="180.3203">SectorCommitments map[string]types.Commitments</text><text fill="#000000" font-family="sans-serif" font-size="11" lengthAdjust="spacingAndGlyphs" textLength="132" x="1476" y="193.2754">LastUsedSectorID uint64</text><text fill="#000000" font-family="sans-serif" font-size="11" lengthAdjust="spacingAndGlyphs" textLength="203" x="1476" y="206.2305">ProvingPeriodStart *types.BlockHeight</text><text fill="#000000" font-family="sans-serif" font-size="11" lengthAdjust="spacingAndGlyphs" textLength="148" x="1476" y="219.1855">LastPoSt *types.BlockHeight</text><text fill="#000000" font-family="sans-serif" font-size="11" lengthAdjust="spacingAndGlyphs" textLength="74" x="1476" y="232.1406">Power *big.Int</text><line style="stroke: #A80036; stroke-width: 1.5;" x1="1471" x2="1763" y1="238.4609" y2="238.4609"/><!--class github.com\\filecoin_project\\go_filecoin\\actor\\builtin\\paymentbroker.PaymentVoucher--><rect fill="#FEFECE" filter="url(#f1spubp2ivj2zh)" height="125.7305" id="github.com\\filecoin_project\\go_filecoin\\actor\\builtin\\paymentbroker.PaymentVoucher" style="stroke: #A80036; stroke-width: 1.5;" width="149" x="473.5" y="81.5"/><ellipse cx="497.95" cy="97.5" fill="#ADD1B2" rx="11" ry="11" style="stroke: #A80036; stroke-width: 1.0;"/><path d="M500.4231,103.6431 Q499.8421,103.9419 499.2029,104.0913 Q498.5638,104.2407 497.8582,104.2407 Q495.3514,104.2407 494.0315,102.5889 Q492.7117,100.937 492.7117,97.8159 Q492.7117,94.6865 494.0315,93.0347 Q495.3514,91.3828 497.8582,91.3828 Q498.5638,91.3828 499.2112,91.5322 Q499.8587,91.6816 500.4231,91.9805 L500.4231,94.7031 Q499.7923,94.1221 499.1988,93.8523 Q498.6053,93.5825 497.9744,93.5825 Q496.6297,93.5825 495.9449,94.6492 Q495.2601,95.7158 495.2601,97.8159 Q495.2601,99.9077 495.9449,100.9744 Q496.6297,102.041 497.9744,102.041 Q498.6053,102.041 499.1988,101.7712 Q499.7923,101.5015 500.4231,100.9204 Z "/><text fill="#000000" font-family="sans-serif" font-size="12" lengthAdjust="spacingAndGlyphs" textLength="96" x="514.05" y="102.0352">PaymentVoucher</text><line style="stroke: #A80036; stroke-width: 1.5;" x1="474.5" x2="621.5" y1="113.5" y2="113.5"/><text fill="#000000" font-family="sans-serif" font-size="11" lengthAdjust="spacingAndGlyphs" textLength="134" x="479.5" y="128.1348">Channel types.ChannelID</text><text fill="#000000" font-family="sans-serif" font-size="11" lengthAdjust="spacingAndGlyphs" textLength="123" x="479.5" y="141.0898">Payer address.Address</text><text fill="#000000" font-family="sans-serif" font-size="11" lengthAdjust="spacingAndGlyphs" textLength="129" x="479.5" y="154.0449">Target address.Address</text><text fill="#000000" font-family="sans-serif" font-size="11" lengthAdjust="spacingAndGlyphs" textLength="116" x="479.5" y="167">Amount types.AttoFIL</text><text fill="#000000" font-family="sans-serif" font-size="11" lengthAdjust="spacingAndGlyphs" textLength="136" x="479.5" y="179.9551">ValidAt types.BlockHeight</text><text fill="#000000" font-family="sans-serif" font-size="11" lengthAdjust="spacingAndGlyphs" textLength="137" x="479.5" y="192.9102">Signature types.Signature</text><line style="stroke: #A80036; stroke-width: 1.5;" x1="474.5" x2="621.5" y1="199.2305" y2="199.2305"/><!--class github.com\\filecoin_project\\go_filecoin\\actor\\builtin\\paymentbroker.PaymentChannel--><rect fill="#FEFECE" filter="url(#f1spubp2ivj2zh)" height="99.8203" id="github.com\\filecoin_project\\go_filecoin\\actor\\builtin\\paymentbroker.PaymentChannel" style="stroke: #A80036; stroke-width: 1.5;" width="188" x="658" y="94.5"/><ellipse cx="700.45" cy="110.5" fill="#ADD1B2" rx="11" ry="11" style="stroke: #A80036; stroke-width: 1.0;"/><path d="M702.9231,116.6431 Q702.3421,116.9419 701.7029,117.0913 Q701.0638,117.2407 700.3582,117.2407 Q697.8514,117.2407 696.5315,115.5889 Q695.2117,113.937 695.2117,110.8159 Q695.2117,107.6865 696.5315,106.0347 Q697.8514,104.3828 700.3582,104.3828 Q701.0638,104.3828 701.7112,104.5322 Q702.3587,104.6816 702.9231,104.9805 L702.9231,107.7031 Q702.2923,107.1221 701.6988,106.8523 Q701.1053,106.5825 700.4744,106.5825 Q699.1297,106.5825 698.4449,107.6492 Q697.7601,108.7158 697.7601,110.8159 Q697.7601,112.9077 698.4449,113.9744 Q699.1297,115.041 700.4744,115.041 Q701.1053,115.041 701.6988,114.7712 Q702.2923,114.5015 702.9231,113.9204 Z "/><text fill="#000000" font-family="sans-serif" font-size="12" lengthAdjust="spacingAndGlyphs" textLength="95" x="720.55" y="115.0352">PaymentChannel</text><line style="stroke: #A80036; stroke-width: 1.5;" x1="659" x2="845" y1="126.5" y2="126.5"/><text fill="#000000" font-family="sans-serif" font-size="11" lengthAdjust="spacingAndGlyphs" textLength="129" x="664" y="141.1348">Target address.Address</text><text fill="#000000" font-family="sans-serif" font-size="11" lengthAdjust="spacingAndGlyphs" textLength="121" x="664" y="154.0898">Amount *types.AttoFIL</text><text fill="#000000" font-family="sans-serif" font-size="11" lengthAdjust="spacingAndGlyphs" textLength="176" x="664" y="167.0449">AmountRedeemed *types.AttoFIL</text><text fill="#000000" font-family="sans-serif" font-size="11" lengthAdjust="spacingAndGlyphs" textLength="119" x="664" y="180">Eol *types.BlockHeight</text><line style="stroke: #A80036; stroke-width: 1.5;" x1="659" x2="845" y1="186.3203" y2="186.3203"/><!--class github.com\\filecoin_project\\go_filecoin\\actor\\builtin\\paymentbroker.Actor--><rect fill="#FEFECE" filter="url(#f1spubp2ivj2zh)" height="48" id="github.com\\filecoin_project\\go_filecoin\\actor\\builtin\\paymentbroker.Actor" style="stroke: #A80036; stroke-width: 1.5;" width="62" x="517" y="375.5"/><ellipse cx="532" cy="391.5" fill="#ADD1B2" rx="11" ry="11" style="stroke: #A80036; stroke-width: 1.0;"/><path d="M534.4731,397.6431 Q533.8921,397.9419 533.2529,398.0913 Q532.6138,398.2407 531.9082,398.2407 Q529.4014,398.2407 528.0815,396.5889 Q526.7617,394.937 526.7617,391.8159 Q526.7617,388.6865 528.0815,387.0347 Q529.4014,385.3828 531.9082,385.3828 Q532.6138,385.3828 533.2612,385.5322 Q533.9087,385.6816 534.4731,385.9805 L534.4731,388.7031 Q533.8423,388.1221 533.2488,387.8523 Q532.6553,387.5825 532.0244,387.5825 Q530.6797,387.5825 529.9949,388.6492 Q529.3101,389.7158 529.3101,391.8159 Q529.3101,393.9077 529.9949,394.9744 Q530.6797,396.041 532.0244,396.041 Q532.6553,396.041 533.2488,395.7712 Q533.8423,395.5015 534.4731,394.9204 Z "/><text fill="#000000" font-family="sans-serif" font-size="12" lengthAdjust="spacingAndGlyphs" textLength="30" x="546" y="396.0352">Actor</text><line style="stroke: #A80036; stroke-width: 1.5;" x1="518" x2="578" y1="407.5" y2="407.5"/><line style="stroke: #A80036; stroke-width: 1.5;" x1="518" x2="578" y1="415.5" y2="415.5"/><!--class github.com\\filecoin_project\\go_filecoin\\actor\\builtin\\storagemarket.Actor--><rect fill="#FEFECE" filter="url(#f1spubp2ivj2zh)" height="48" id="github.com\\filecoin_project\\go_filecoin\\actor\\builtin\\storagemarket.Actor" style="stroke: #A80036; stroke-width: 1.5;" width="62" x="2310" y="120.5"/><ellipse cx="2325" cy="136.5" fill="#ADD1B2" rx="11" ry="11" style="stroke: #A80036; stroke-width: 1.0;"/><path d="M2327.4731,142.6431 Q2326.8921,142.9419 2326.2529,143.0913 Q2325.6138,143.2407 2324.9082,143.2407 Q2322.4014,143.2407 2321.0815,141.5889 Q2319.7617,139.937 2319.7617,136.8159 Q2319.7617,133.6865 2321.0815,132.0347 Q2322.4014,130.3828 2324.9082,130.3828 Q2325.6138,130.3828 2326.2612,130.5322 Q2326.9087,130.6816 2327.4731,130.9805 L2327.4731,133.7031 Q2326.8423,133.1221 2326.2488,132.8523 Q2325.6553,132.5825 2325.0244,132.5825 Q2323.6797,132.5825 2322.9949,133.6492 Q2322.3101,134.7158 2322.3101,136.8159 Q2322.3101,138.9077 2322.9949,139.9744 Q2323.6797,141.041 2325.0244,141.041 Q2325.6553,141.041 2326.2488,140.7712 Q2326.8423,140.5015 2327.4731,139.9204 Z "/><text fill="#000000" font-family="sans-serif" font-size="12" lengthAdjust="spacingAndGlyphs" textLength="30" x="2339" y="141.0352">Actor</text><line style="stroke: #A80036; stroke-width: 1.5;" x1="2311" x2="2371" y1="152.5" y2="152.5"/><line style="stroke: #A80036; stroke-width: 1.5;" x1="2311" x2="2371" y1="160.5" y2="160.5"/><!--class github.com\\filecoin_project\\go_filecoin\\actor\\builtin\\storagemarket.State--><rect fill="#FEFECE" filter="url(#f1spubp2ivj2zh)" height="73.9102" id="github.com\\filecoin_project\\go_filecoin\\actor\\builtin\\storagemarket.State" style="stroke: #A80036; stroke-width: 1.5;" width="181" x="2038.5" y="107.5"/><ellipse cx="2110.75" cy="123.5" fill="#ADD1B2" rx="11" ry="11" style="stroke: #A80036; stroke-width: 1.0;"/><path d="M2113.2231,129.6431 Q2112.6421,129.9419 2112.0029,130.0913 Q2111.3638,130.2407 2110.6582,130.2407 Q2108.1514,130.2407 2106.8315,128.5889 Q2105.5117,126.937 2105.5117,123.8159 Q2105.5117,120.6865 2106.8315,119.0347 Q2108.1514,117.3828 2110.6582,117.3828 Q2111.3638,117.3828 2112.0112,117.5322 Q2112.6587,117.6816 2113.2231,117.9805 L2113.2231,120.7031 Q2112.5923,120.1221 2111.9988,119.8523 Q2111.4053,119.5825 2110.7744,119.5825 Q2109.4297,119.5825 2108.7449,120.6492 Q2108.0601,121.7158 2108.0601,123.8159 Q2108.0601,125.9077 2108.7449,126.9744 Q2109.4297,128.041 2110.7744,128.041 Q2111.4053,128.041 2111.9988,127.7712 Q2112.5923,127.5015 2113.2231,126.9204 Z "/><text fill="#000000" font-family="sans-serif" font-size="12" lengthAdjust="spacingAndGlyphs" textLength="28" x="2131.25" y="128.0352">State</text><line style="stroke: #A80036; stroke-width: 1.5;" x1="2039.5" x2="2218.5" y1="139.5" y2="139.5"/><text fill="#000000" font-family="sans-serif" font-size="11" lengthAdjust="spacingAndGlyphs" textLength="76" x="2044.5" y="154.1348">Miners cid.Cid</text><text fill="#000000" font-family="sans-serif" font-size="11" lengthAdjust="spacingAndGlyphs" textLength="169" x="2044.5" y="167.0898">TotalCommittedStorage *big.Int</text><line style="stroke: #A80036; stroke-width: 1.5;" x1="2039.5" x2="2218.5" y1="173.4102" y2="173.4102"/><!--link github.com\\filecoin_project\\go_filecoin\\actor\\builtin\\miner.State to github.com\\filecoin_project\\go_filecoin\\actor\\builtin\\miner.Ask--><path d="M1617,246.2321 C1617,266.5278 1617,287.691 1617,307.5 C1617,307.5 1617,307.5 1617,491.5 C1617,509.7548 1617,529.7948 1617,547.4301 " fill="none" id="github.com\\filecoin_project\\go_filecoin\\actor\\builtin\\miner.State-github.com\\filecoin_project\\go_filecoin\\actor\\builtin\\miner.Ask" style="stroke: #A80036; stroke-width: 1.0;"/><polygon fill="#A80036" points="1617,552.8212,1621,543.8212,1617,547.8212,1613,543.8212,1617,552.8212" style="stroke: #A80036; stroke-width: 1.0;"/><text fill="#000000" font-family="sans-serif" font-size="13" lengthAdjust="spacingAndGlyphs" textLength="31" x="1618" y="404.5684">Asks</text><text fill="#000000" font-family="sans-serif" font-size="13" lengthAdjust="spacingAndGlyphs" textLength="6" x="1610.5219" y="542.2684">*</text><!--link github.com\\filecoin_project\\go_filecoin\\actor.Actor to github.com\\filecoin_project\\go_filecoin\\actor.storageAsBlocks--><!--link github.com\\filecoin_project\\go_filecoin\\actor.storageAsBlocks to github.com\\filecoin_project\\go_filecoin\\actor.lookup--><!--link github.com\\filecoin_project\\go_filecoin\\actor.Actor to github.com\\filecoin_project\\go_filecoin\\actor.FakeActorStorage--><!--link github.com\\filecoin_project\\go_filecoin\\actor.FakeActorStorage to github.com\\filecoin_project\\go_filecoin\\actor.FakeActor--><!--link github.com\\filecoin_project\\go_filecoin\\actor\\builtin\\paymentbroker.PaymentVoucher to github.com\\filecoin_project\\go_filecoin\\actor\\builtin\\paymentbroker.PaymentChannel--><!--link github.com\\filecoin_project\\go_filecoin\\actor\\builtin\\paymentbroker.PaymentVoucher to github.com\\filecoin_project\\go_filecoin\\actor\\builtin\\paymentbroker.Actor--><!--
@startuml
namespace github.com\\filecoin_project\\go_filecoin\\actor {
 class Actor {
  Code cid.Cid
  Head cid.Cid
  Nonce types.Uint64
  Balance *types.AttoFIL
} 
}
namespace github.com\\filecoin_project\\go_filecoin\\actor\\builtin\\account {
 class Actor {
} 
}
namespace github.com\\filecoin_project\\go_filecoin\\actor\\builtin\\miner {
 class Actor {
  Bootstrap bool
} 
}
namespace github.com\\filecoin_project\\go_filecoin\\actor\\builtin\\miner {
 class Ask {
  Price *types.AttoFIL
  Expiry *types.BlockHeight
  ID *big.Int
} 
}
namespace github.com\\filecoin_project\\go_filecoin\\actor\\builtin\\miner {
 class State {
  Owner address.Address
  PeerID peer.ID
  PublicKey []byte
  PledgeSectors *big.Int
  Collateral *types.AttoFIL
  Asks []*Ask
  NextAskID *big.Int
  SectorCommitments map[string]types.Commitments
  LastUsedSectorID uint64
  ProvingPeriodStart *types.BlockHeight
  LastPoSt *types.BlockHeight
  Power *big.Int
} 
}
namespace github.com\\filecoin_project\\go_filecoin\\actor\\builtin\\paymentbroker {
 class PaymentVoucher {
  Channel types.ChannelID
  Payer address.Address
  Target address.Address
  Amount types.AttoFIL
  ValidAt types.BlockHeight
  Signature types.Signature
} 
}
namespace github.com\\filecoin_project\\go_filecoin\\actor\\builtin\\paymentbroker {
 class PaymentChannel {
  Target address.Address
  Amount *types.AttoFIL
  AmountRedeemed *types.AttoFIL
  Eol *types.BlockHeight
} 
}
namespace github.com\\filecoin_project\\go_filecoin\\actor\\builtin\\paymentbroker {
 class Actor {
} 
}
namespace github.com\\filecoin_project\\go_filecoin\\actor\\builtin\\storagemarket {
 class Actor {
} 
}
namespace github.com\\filecoin_project\\go_filecoin\\actor\\builtin\\storagemarket {
 class State {
  Miners cid.Cid
  TotalCommittedStorage *big.Int
} 
}
namespace github.com\\filecoin_project\\go_filecoin\\actor {
 class storageAsBlocks {
  s exec.Storage
} 
}
namespace github.com\\filecoin_project\\go_filecoin\\actor {
 class lookup {
  n *hamt.Node
  s exec.Storage
  t reflect.Type
} 
}
namespace github.com\\filecoin_project\\go_filecoin\\actor {
 class FakeActorStorage {
  Changed bool
} 
}
namespace github.com\\filecoin_project\\go_filecoin\\actor {
 class FakeActor {
} 
}
github.com\\filecoin_project\\go_filecoin\\actor\\builtin\\miner.State - - -> "*" github.com\\filecoin_project\\go_filecoin\\actor\\builtin\\miner.Ask : Asks
@enduml

PlantUML version 1.2019.03(Sun Mar 10 19:04:44 CST 2019)
(GPL source distribution)
Java Runtime: Java(TM) SE Runtime Environment
JVM: Java HotSpot(TM) 64-Bit Server VM
Java Version: 1.8.0_201-b09
Operating System: Mac OS X
OS Version: 10.14.3
Default Encoding: UTF-8
Language: zh
Country: CN
--></g></svg>